<?xml version="1.0" standalone="no"?>
<!DOCTYPE svg PUBLIC "-//W3C//DTD SVG 20010904//EN"
 "http://www.w3.org/TR/2001/REC-SVG-20010904/DTD/svg10.dtd">
<svg version="1.0" xmlns="http://www.w3.org/2000/svg"
 width="1000.000000pt" height="1000.000000pt" viewBox="0 0 1000.000000 1000.000000"
 preserveAspectRatio="xMidYMid meet">
<metadata>
Created by potrace 1.11, written by Peter Selinger 2001-2013
</metadata>
<g transform="translate(0.000000,1000.000000) scale(0.100000,-0.100000)"
fill="#000000" stroke="none">
<path d="M1750 8478 c-44 -30 -69 -66 -80 -114 -6 -23 -10 -839 -10 -1951 l0
-1913 -274 0 c-267 0 -274 0 -307 -23 -18 -12 -44 -38 -56 -56 -21 -32 -23
-44 -23 -180 0 -136 2 -152 30 -230 81 -229 245 -410 439 -484 l56 -22 3460
-3 c3143 -2 3464 -1 3515 14 217 63 402 259 479 508 17 56 21 94 21 216 0 136
-2 149 -23 181 -12 18 -38 44 -56 56 -33 23 -40 23 -307 23 l-274 0 0 1913 c0
1112 -4 1928 -10 1951 -11 48 -36 84 -80 114 l-33 22 -3217 0 -3217 0 -33 -22z
m6250 -2143 l0 -1835 -3000 0 -3000 0 0 1835 0 1835 3000 0 3000 0 0 -1835z
m-3824 -2224 c27 -30 70 -62 106 -80 l61 -31 687 0 687 0 61 31 c36 18 79 50
106 80 l44 49 1366 0 1366 0 -6 -27 c-22 -104 -124 -237 -209 -273 -46 -20
-76 -20 -3444 -20 l-3397 0 -51 25 c-84 42 -168 148 -199 250 l-13 45 1395 0
1396 0 44 -49z"/>
<path d="M5344 7321 c-23 -10 -50 -32 -61 -47 -12 -16 -248 -485 -527 -1042
-478 -957 -506 -1015 -506 -1066 0 -62 25 -107 80 -144 30 -20 45 -23 96 -20
112 7 70 -63 647 1090 547 1093 535 1067 503 1141 -39 92 -140 130 -232 88z"/>
<path d="M3915 7036 c-47 -22 -761 -744 -780 -788 -20 -50 -19 -83 5 -132 27
-57 732 -760 782 -781 146 -60 291 94 219 233 -11 20 -150 167 -310 327 l-291
289 299 301 c320 322 328 333 318 421 -6 54 -47 111 -93 130 -42 18 -110 17
-149 0z"/>
<path d="M5780 7028 c-72 -49 -98 -118 -74 -196 12 -42 48 -82 314 -347 l300
-300 -304 -305 c-340 -341 -340 -340 -311 -436 28 -97 129 -148 222 -114 32
12 767 740 789 782 20 38 18 112 -5 156 -25 48 -737 758 -774 771 -49 19 -121
13 -157 -11z"/>
</g>
</svg>
